<svg width="90" height="95" viewBox="0 0 90 95" fill="none" xmlns="http://www.w3.org/2000/svg">
<mask id="mask0_75_1369" style="mask-type:luminance" maskUnits="userSpaceOnUse" x="0" y="0" width="90" height="95">
<path d="M0 47.3511C0 21.1997 20.1472 3.8147e-05 45.0001 3.8147e-05C69.8529 3.8147e-05 90 21.1997 90 47.3511C90 73.5021 69.8529 94.7016 45.0001 94.7016C20.1472 94.7016 0 73.5021 0 47.3511Z" fill="white"/>
</mask>
<g mask="url(#mask0_75_1369)">
<path d="M0 47.351C0 21.1997 20.1472 0 45.0001 0C69.8529 0 90 21.1997 90 47.351C90 73.502 69.8529 94.7016 45.0001 94.7016C20.1472 94.7016 0 73.502 0 47.351Z" fill="#FFE344"/>
<path d="M-34.088 348.736C36.3887 348.736 93.5201 288.704 93.5201 214.653C93.5201 140.601 36.3887 80.5694 -34.088 80.5694C-104.565 80.5694 -161.696 140.601 -161.696 214.653C-161.696 288.704 -104.565 348.736 -34.088 348.736Z" fill="white"/>
<path d="M93.5201 214.653C93.5201 288.704 36.3887 348.736 -34.088 348.736C-104.565 348.736 -161.696 288.704 -161.696 214.653C-161.696 140.601 -104.565 80.5694 -34.088 80.5694C36.3887 80.5694 93.5201 140.601 93.5201 214.653Z" stroke="#030507" stroke-width="1.32442"/>
<path fill-rule="evenodd" clip-rule="evenodd" d="M23.6862 40.5649C24.6264 40.2811 25.6248 40.7663 26.0277 41.7044L28.3585 47.1392L32.5407 46.3156C33.9202 46.0436 35.2489 47.0001 35.5067 48.4519C35.5103 48.469 35.5103 48.4862 35.5139 48.5038L38.7813 69.1094C37.0242 72.1488 35.8116 73.8678 35.1509 74.2663C34.4938 74.6648 32.0106 75.1744 27.7086 75.7946L26.8591 74.2458C26.0169 72.7142 25.4578 71.03 25.2073 69.281L22.3937 49.6431L22.1215 42.8505C22.0779 41.7995 22.7241 40.8549 23.6862 40.5649Z" fill="#F8B097" stroke="#030507" stroke-width="1.32442" stroke-linecap="round" stroke-linejoin="round"/>
<path d="M34.5485 40.4451L25.9227 41.721C25.5234 41.7798 25.2475 42.166 25.3056 42.5839L28.5366 66.7944C28.5947 67.212 28.9614 67.5032 29.3571 67.4441L37.9865 66.1685C38.3823 66.1099 38.6581 65.7232 38.6037 65.3057L35.369 41.0952C35.3145 40.6773 34.9479 40.3862 34.5485 40.4451Z" fill="black" stroke="#030507" stroke-width="1.32442" stroke-linecap="round" stroke-linejoin="round"/>
<path d="M49.8472 14.2038L43.7192 13.9119C34.7086 13.4829 27.0775 20.8201 26.6673 30.2999C26.6637 30.4114 26.6601 30.5226 26.6564 30.6341C26.4858 37.6424 26.5294 42.7589 26.7907 45.983C26.9759 48.2706 27.3462 50.4453 27.898 52.507C29.1687 57.2363 32.9334 60.7586 37.5476 61.5304L40.9021 62.0919C41.8024 62.2421 42.6991 62.3141 43.5922 62.3112L42.2235 77.5206L36.0482 79.3502C38.9852 82.6093 42.4994 84.1162 46.5836 83.8702C50.6713 83.6237 56.1788 82.1417 63.1056 79.4231L60.753 46.2428L61.5916 42.0812C62.3866 38.1294 62.5393 34.0638 62.0346 30.0592L61.4502 25.401C60.6696 19.2046 55.7828 14.4865 49.8472 14.2038Z" fill="white"/>
<path d="M49.8472 14.2038L43.7192 13.9119C34.7086 13.4829 27.0775 20.8201 26.6673 30.2999C26.6637 30.4114 26.6601 30.5226 26.6564 30.6341C26.4858 37.6424 26.5294 42.7589 26.7907 45.983C26.9759 48.2706 27.3462 50.4453 27.898 52.507C29.1687 57.2363 32.9334 60.7586 37.5476 61.5304L40.9021 62.0919C41.8024 62.2421 42.6991 62.3141 43.5922 62.3112L42.2235 77.5206L36.0482 79.3502C38.9852 82.6093 42.4994 84.1162 46.5836 83.8702C50.6713 83.6237 56.1788 82.1417 63.1056 79.4231L60.753 46.2428L61.5916 42.0812C62.3866 38.1294 62.5393 34.0638 62.0346 30.0592L61.4502 25.401C60.6696 19.2046 55.7828 14.4865 49.8472 14.2038Z" fill="#F8B097" stroke="#030507" stroke-width="1.32442" stroke-linejoin="round"/>
<path fill-rule="evenodd" clip-rule="evenodd" d="M27.8398 24.6275H48.3588L48.5042 35.8748L50.8346 33.9866H52.3522L60.7894 46.7284L60.7532 46.2428L61.5918 42.0813C62.3868 38.1295 62.539 34.0638 62.0344 30.0593L61.45 25.4015C60.6694 19.2046 55.783 14.4865 49.8474 14.2038L43.7192 13.912C36.6145 13.5735 30.3666 18.0647 27.8398 24.6275Z" fill="black"/>
<path d="M27.8389 24.6271V25.1046C27.69 25.1046 27.5485 25.0256 27.465 24.8941C27.3778 24.7624 27.3633 24.5951 27.4178 24.4479L27.8389 24.6271ZM48.3579 24.6271V24.1496C48.6048 24.1496 48.8078 24.3593 48.8119 24.6206L48.3579 24.6271ZM48.5029 35.8745L48.7788 36.2527C48.6447 36.363 48.4594 36.3829 48.3072 36.3042C48.1509 36.2255 48.053 36.0617 48.0494 35.8809L48.5029 35.8745ZM50.8337 33.9862L50.5578 33.608C50.6376 33.5435 50.7323 33.5087 50.8337 33.5087V33.9862ZM52.3514 33.9862V33.5087C52.5 33.5087 52.6381 33.5851 52.7251 33.7131L52.3514 33.9862ZM60.7881 46.7279L61.2421 46.6924C61.2566 46.9071 61.1333 47.1058 60.9408 47.1779C60.7483 47.2501 60.534 47.1776 60.4144 47.0011L60.7881 46.7279ZM60.7519 46.2424L60.302 46.2779C60.2984 46.2329 60.302 46.1874 60.3093 46.1435L60.7519 46.2424ZM27.8389 24.1496H48.3579V25.1046H27.8389V24.1496ZM48.8119 24.6206L48.9568 35.868L48.0494 35.8809L47.904 24.6336L48.8119 24.6206ZM48.227 35.4963L50.5578 33.608L51.1096 34.3644L48.7788 36.2527L48.227 35.4963ZM50.8337 33.5087H52.3514V34.4637H50.8337V33.5087ZM52.7251 33.7131L61.1623 46.4552L60.4144 47.0011L51.9772 34.2594L52.7251 33.7131ZM60.3346 46.7635L60.302 46.2779L61.2058 46.2069L61.2421 46.6924L60.3346 46.7635ZM60.3093 46.1435L61.1478 41.982L62.0371 42.1798L61.1986 46.3414L60.3093 46.1435ZM61.1478 41.982C61.932 38.0832 62.0806 34.0722 61.5832 30.1215L62.4838 29.9962C62.9921 34.0546 62.8431 38.1749 62.0371 42.1798L61.1478 41.982ZM61.5832 30.1215L60.9988 25.4634L61.8994 25.3384L62.4838 29.9962L61.5832 30.1215ZM60.9988 25.4634C60.2472 19.496 55.5425 14.9529 49.8244 14.6805L49.8679 13.7267C56.0218 14.0196 61.0898 18.9123 61.8994 25.3384L60.9988 25.4634ZM49.8244 14.6805L43.6964 14.3886L43.74 13.4344L49.8679 13.7267L49.8244 14.6805ZM43.6964 14.3886C36.7914 14.0598 30.7142 18.4253 28.26 24.8063L27.4178 24.4479C30.0135 17.7033 36.4357 13.0868 43.74 13.4344L43.6964 14.3886Z" fill="#030507"/>
<path fill-rule="evenodd" clip-rule="evenodd" d="M41.0352 62.5828C43.482 62.0189 45.1522 61.5841 46.0415 61.2786C48.0344 60.5945 49.2652 59.7932 49.8533 59.3685C49.9987 59.2655 50.1944 59.3041 50.2927 59.4547C50.3652 59.5682 50.3652 59.7179 50.2891 59.8309L42.1061 72.1715L41.0352 62.5828Z" fill="#030507"/>
<path d="M28.4137 39.0562C27.713 38.9786 27.2048 38.3189 27.281 37.5828C27.3536 36.8463 27.9817 36.3123 28.6787 36.3898C29.3793 36.4669 29.8876 37.1267 29.815 37.8632C29.7424 38.5993 29.1143 39.1333 28.4137 39.0562Z" fill="#030507"/>
<path d="M32.9608 47.2275C31.9588 48.1847 30.9314 48.199 29.875 47.2714" stroke="#030507" stroke-width="1.32442" stroke-linecap="round" stroke-linejoin="round"/>
<path fill-rule="evenodd" clip-rule="evenodd" d="M50.9766 33.9001C55.3438 30.1522 58.7016 29.949 61.0542 33.29C64.5792 38.3016 60.8 43.6519 58.1136 44.8953C56.3241 45.7243 54.8862 45.8889 53.8044 45.3896" fill="#F8B097"/>
<path d="M50.9766 33.9001C55.3438 30.1522 58.7016 29.949 61.0542 33.29C64.5792 38.3016 60.8 43.6519 58.1136 44.8953C56.3241 45.7243 54.8862 45.8889 53.8044 45.3896" stroke="#030507" stroke-width="1.32442" stroke-linecap="round" stroke-linejoin="round"/>
<path d="M56.1855 33.7148C58.7886 34.5163 59.7323 36.6746 59.0174 40.1898" stroke="#030507" stroke-width="1.32442" stroke-linecap="round" stroke-linejoin="round"/>
<path d="M31.3398 36.2571L29.8877 44.4701L32.5778 44.5344" stroke="#030507" stroke-width="1.32442" stroke-linecap="round" stroke-linejoin="round"/>
<path fill-rule="evenodd" clip-rule="evenodd" d="M21.6669 70.2554C20.3346 70.2554 19.093 70.9514 18.3524 72.1122C2.70178 96.5923 -6.82436 113.164 -10.2296 121.826C-20.2132 147.229 -12.9016 157.123 -10.2296 158.88C0.421904 165.884 9.9807 161.809 18.4504 146.656L19.5396 191.351H26.4373L85.2423 190.991L97.7744 196.126L126.215 151.012C130.923 143.542 131.221 133.914 126.984 126.138L104.716 85.2818C100.443 77.4445 92.4124 72.7247 83.8302 73.0083L63.1041 73.6933L62.9012 74.5562C62.3892 74.5924 61.8809 74.7564 61.4234 75.0476C57.0159 77.8635 52.7393 78.7253 48.5936 77.6342C41.5869 75.7899 43.4819 73.6647 42.2295 73.8845C41.8955 73.9431 39.7172 73.9431 35.6948 73.8845V73.6933C35.6948 71.7942 34.2317 70.2554 32.4274 70.2554H21.6669ZM100.134 138.825L90.0308 160.425L92.2524 130.637C94.6816 133.205 97.3096 135.934 100.134 138.825Z" fill="white" stroke="#030507" stroke-width="1.32442" stroke-linecap="round" stroke-linejoin="round"/>
<path fill-rule="evenodd" clip-rule="evenodd" d="M46.9307 77.8205L55.2225 77.973C55.6216 77.9802 55.941 78.3282 55.9337 78.7505C55.9337 78.7977 55.9301 78.8449 55.9192 78.8911L54.5108 86.0759C54.4419 86.4291 54.1479 86.6832 53.8063 86.6856L49.0291 86.7218C48.7093 86.7242 48.4225 86.5025 48.3283 86.1779L46.2226 78.8044C46.1066 78.4006 46.3241 77.9745 46.7055 77.8529C46.778 77.83 46.8541 77.8195 46.9307 77.8205Z" fill="black"/>
<path fill-rule="evenodd" clip-rule="evenodd" d="M49.6114 86.1705L44.7357 137.115C44.6412 138.101 44.8555 139.092 45.3421 139.941L50.6679 149.244C51.2922 150.328 52.6281 150.677 53.6592 150.024C53.975 149.823 54.24 149.541 54.4217 149.204L59.4607 139.989C59.9432 139.11 60.1321 138.089 60.0016 137.084L53.3032 85.3754L49.6114 86.1705Z" fill="black"/>
<path fill-rule="evenodd" clip-rule="evenodd" d="M42.4125 70.2554C40.5973 71.0243 39.5082 71.6611 39.1452 72.1655C37.7221 74.1557 38.0779 76.9687 37.1485 77.8953C35.8706 79.1748 33.9356 81.5301 31.3398 84.9623L51.3069 78.2772L69.6406 85.9176C68.7694 83.4574 67.9195 81.4834 67.0991 79.9961C66.4784 78.8716 66.0172 76.8867 65.7124 74.0418C65.5162 72.2117 64.2604 70.702 62.5611 70.2554C61.5191 72.8381 60.5501 74.4937 59.6567 75.2211C56.317 77.9487 52.4395 78.2772 51.3069 78.2772C50.3524 78.2772 48.9544 77.9354 47.1137 77.2513C44.2967 76.2036 42.4125 73.4001 42.4125 70.2554Z" fill="white"/>
<path d="M51.3069 78.2772L31.3398 84.9623C33.9356 81.5301 35.8706 79.1748 37.1485 77.8953C38.0779 76.9687 37.7221 74.1557 39.1452 72.1655C39.5082 71.6611 40.5973 71.0243 42.4125 70.2554C42.4125 73.4001 44.2967 76.2036 47.1137 77.2513C48.9544 77.9354 50.3524 78.2772 51.3069 78.2772ZM51.3069 78.2772L69.6406 85.9176C68.7694 83.4574 67.9195 81.4834 67.0991 79.9961C66.4784 78.8716 66.0172 76.8867 65.7124 74.0418C65.5162 72.2117 64.2604 70.702 62.5611 70.2554C61.5191 72.8381 60.5501 74.4937 59.6567 75.2211C56.317 77.9487 52.4395 78.2772 51.3069 78.2772Z" stroke="#030507" stroke-width="1.32442" stroke-linecap="round" stroke-linejoin="round"/>
<path fill-rule="evenodd" clip-rule="evenodd" d="M25.167 36.0649H42.3169H50.2166H25.167Z" stroke="#030507" stroke-width="1.32442" stroke-linecap="round" stroke-linejoin="round"/>
<path fill-rule="evenodd" clip-rule="evenodd" d="M31.3398 36.2571L33.4745 39.7184C34.1207 40.7639 35.2099 41.413 36.3934 41.4569L38.332 41.5291C39.6026 41.5765 40.8006 40.9236 41.4977 39.807L43.6832 36.2987L31.3398 36.2571Z" fill="black"/>
<path fill-rule="evenodd" clip-rule="evenodd" d="M25.5552 41.6051H26.1397C27.3922 41.6051 28.5503 40.9294 29.2147 39.8162L31.3384 36.2571L24.8037 36.471L25.5552 41.6051Z" fill="black"/>
<path d="M28.9787 92.4121L14.6387 129.275" stroke="#030507" stroke-width="1.32442" stroke-linecap="round" stroke-linejoin="round"/>
</g>
</svg>
