<svg width="14" height="14" viewBox="0 0 14 14" fill="none" xmlns="http://www.w3.org/2000/svg">
<path fill-rule="evenodd" clip-rule="evenodd" d="M7 4.20692L6.22193 3.51053C5.80835 3.14036 5.26502 2.91667 4.66666 2.91667C3.378 2.91667 2.33333 3.96134 2.33333 5.25C2.33333 6.99975 3.11485 8.29031 4.10214 9.24587C5.10672 10.2182 6.28822 10.8024 6.9333 11.0713C6.97816 11.09 7.02183 11.09 7.06669 11.0713C7.71177 10.8024 8.89327 10.2182 9.89786 9.24587C10.8851 8.2903 11.6667 6.99979 11.6667 5.25002C11.6667 3.96136 10.622 2.91667 9.33333 2.91667C8.73498 2.91667 8.19165 3.14036 7.77806 3.51053L7 4.20692ZM7 2.64121C6.38078 2.087 5.56308 1.75 4.66666 1.75C2.73367 1.75 1.16666 3.317 1.16666 5.25C1.16666 9.53813 5.05835 11.5536 6.48434 12.1481C6.81652 12.2866 7.18348 12.2866 7.51566 12.1481C8.94165 11.5536 12.8333 9.53818 12.8333 5.25003C12.8333 3.31703 11.2663 1.75 9.33333 1.75C8.43692 1.75 7.61921 2.087 7 2.64121Z" fill="white"/>
</svg>
